<svg width="320" height="31" viewBox="0 0 320 31" fill="none" xmlns="http://www.w3.org/2000/svg">
<path d="M18.7891 25.6445L0 17.3242V15.4688L18.7891 6.17188V9.0625L3.51562 16.2695L18.7891 22.7734V25.6445Z" fill="white"/>
<path d="M37.3438 30.3906L27.7539 5.11719H27.5977C27.6497 5.65104 27.6953 6.30208 27.7344 7.07031C27.7734 7.83854 27.806 8.67839 27.832 9.58984C27.8581 10.4883 27.8711 11.4062 27.8711 12.3438V30.3906H24.7852V1.83594H29.707L38.75 25.5859H38.8867L48.0664 1.83594H52.9492V30.3906H49.668V12.1094C49.668 11.263 49.681 10.4167 49.707 9.57031C49.7331 8.71094 49.7656 7.90365 49.8047 7.14844C49.8438 6.38021 49.8828 5.71615 49.9219 5.15625H49.7656L40.0586 30.3906H37.3438Z" fill="white"/>
<path d="M68.2812 8.63281C70.8333 8.63281 72.7279 9.20573 73.9648 10.3516C75.2018 11.4974 75.8203 13.3268 75.8203 15.8398V30.3906H73.457L72.832 27.2266H72.6758C72.0768 28.0078 71.4518 28.6654 70.8008 29.1992C70.1497 29.7201 69.3945 30.1172 68.5352 30.3906C67.6888 30.651 66.6471 30.7812 65.4102 30.7812C64.1081 30.7812 62.9492 30.5534 61.9336 30.0977C60.931 29.6419 60.1367 28.9518 59.5508 28.0273C58.9779 27.1029 58.6914 25.931 58.6914 24.5117C58.6914 22.3763 59.5378 20.7357 61.2305 19.5898C62.9232 18.444 65.5013 17.819 68.9648 17.7148L72.6562 17.5586V16.25C72.6562 14.401 72.2591 13.1055 71.4648 12.3633C70.6706 11.6211 69.5508 11.25 68.1055 11.25C66.9857 11.25 65.918 11.4128 64.9023 11.7383C63.8867 12.0638 62.9232 12.4479 62.0117 12.8906L61.0156 10.4297C61.9792 9.9349 63.0859 9.51172 64.3359 9.16016C65.5859 8.80859 66.901 8.63281 68.2812 8.63281ZM72.6172 19.8438L69.3555 19.9805C66.6862 20.0846 64.8047 20.5208 63.7109 21.2891C62.6172 22.0573 62.0703 23.1445 62.0703 24.5508C62.0703 25.7747 62.4414 26.6797 63.1836 27.2656C63.9258 27.8516 64.9089 28.1445 66.1328 28.1445C68.0339 28.1445 69.5898 27.6172 70.8008 26.5625C72.0117 25.5078 72.6172 23.9258 72.6172 21.8164V19.8438Z" fill="white"/>
<path d="M89.4141 28.125C89.9479 28.125 90.4948 28.0794 91.0547 27.9883C91.6146 27.8971 92.0703 27.7865 92.4219 27.6562V30.1758C92.0443 30.3451 91.5169 30.4883 90.8398 30.6055C90.1758 30.7227 89.5247 30.7812 88.8867 30.7812C87.7539 30.7812 86.7253 30.5859 85.8008 30.1953C84.8763 29.7917 84.1341 29.1146 83.5742 28.1641C83.0273 27.2135 82.7539 25.8984 82.7539 24.2188V11.5234H79.707V9.94141L82.7734 8.67188L84.0625 4.02344H86.0156V8.98438H92.2852V11.5234H86.0156V24.1211C86.0156 25.4622 86.3216 26.4648 86.9336 27.1289C87.5586 27.793 88.3854 28.125 89.4141 28.125Z" fill="white"/>
<path d="M100 0V9.08203C100 9.60286 99.987 10.1302 99.9609 10.6641C99.9349 11.1849 99.8893 11.6667 99.8242 12.1094H100.039C100.482 11.3542 101.042 10.7227 101.719 10.2148C102.409 9.69401 103.19 9.30339 104.062 9.04297C104.935 8.76953 105.859 8.63281 106.836 8.63281C108.555 8.63281 109.987 8.90625 111.133 9.45312C112.292 10 113.158 10.8464 113.73 11.9922C114.316 13.138 114.609 14.6224 114.609 16.4453V30.3906H111.406V16.6602C111.406 14.8763 110.996 13.5417 110.176 12.6562C109.368 11.7708 108.125 11.3281 106.445 11.3281C104.857 11.3281 103.587 11.6341 102.637 12.2461C101.699 12.8451 101.022 13.7305 100.605 14.9023C100.202 16.0742 100 17.5065 100 19.1992V30.3906H96.7578V0H100Z" fill="white"/>
<path d="M129.531 8.59375C131.354 8.59375 132.917 8.9974 134.219 9.80469C135.521 10.612 136.517 11.7448 137.207 13.2031C137.897 14.6484 138.242 16.3411 138.242 18.2812V20.293H123.457C123.496 22.806 124.121 24.7201 125.332 26.0352C126.543 27.3503 128.249 28.0078 130.449 28.0078C131.803 28.0078 133.001 27.8841 134.043 27.6367C135.085 27.3893 136.165 27.0247 137.285 26.543V29.3945C136.204 29.8763 135.13 30.2279 134.062 30.4492C133.008 30.6706 131.758 30.7812 130.312 30.7812C128.255 30.7812 126.458 30.3646 124.922 29.5312C123.398 28.6849 122.214 27.4479 121.367 25.8203C120.521 24.1927 120.098 22.2005 120.098 19.8438C120.098 17.5391 120.482 15.5469 121.25 13.8672C122.031 12.1745 123.125 10.8724 124.531 9.96094C125.951 9.04948 127.617 8.59375 129.531 8.59375ZM129.492 11.25C127.76 11.25 126.38 11.8164 125.352 12.9492C124.323 14.082 123.711 15.6641 123.516 17.6953H134.844C134.831 16.4193 134.629 15.2995 134.238 14.3359C133.861 13.3594 133.281 12.6042 132.5 12.0703C131.719 11.5234 130.716 11.25 129.492 11.25Z" fill="white"/>
<path d="M161.426 8.98438V30.3906H158.77L158.301 27.3828H158.125C157.682 28.125 157.109 28.75 156.406 29.2578C155.703 29.7656 154.909 30.1432 154.023 30.3906C153.151 30.651 152.22 30.7812 151.23 30.7812C149.538 30.7812 148.118 30.5078 146.973 29.9609C145.827 29.4141 144.961 28.5677 144.375 27.4219C143.802 26.276 143.516 24.8047 143.516 23.0078V8.98438H146.797V22.7734C146.797 24.5573 147.201 25.8919 148.008 26.7773C148.815 27.6497 150.046 28.0859 151.699 28.0859C153.288 28.0859 154.551 27.7865 155.488 27.1875C156.439 26.5885 157.122 25.7096 157.539 24.5508C157.956 23.3789 158.164 21.9466 158.164 20.2539V8.98438H161.426Z" fill="white"/>
<path d="M182.129 24.5312C182.129 25.8984 181.784 27.0508 181.094 27.9883C180.417 28.9128 179.44 29.6094 178.164 30.0781C176.901 30.5469 175.391 30.7812 173.633 30.7812C172.135 30.7812 170.84 30.6641 169.746 30.4297C168.652 30.1953 167.695 29.8633 166.875 29.4336V26.4453C167.747 26.875 168.789 27.2656 170 27.6172C171.211 27.9688 172.448 28.1445 173.711 28.1445C175.56 28.1445 176.901 27.8451 177.734 27.2461C178.568 26.6471 178.984 25.8333 178.984 24.8047C178.984 24.2188 178.815 23.7044 178.477 23.2617C178.151 22.806 177.598 22.3698 176.816 21.9531C176.035 21.5234 174.954 21.0547 173.574 20.5469C172.207 20.026 171.022 19.5117 170.02 19.0039C169.03 18.4831 168.262 17.8516 167.715 17.1094C167.181 16.3672 166.914 15.4036 166.914 14.2188C166.914 12.4089 167.643 11.0221 169.102 10.0586C170.573 9.08203 172.5 8.59375 174.883 8.59375C176.172 8.59375 177.376 8.72396 178.496 8.98438C179.629 9.23177 180.684 9.57031 181.66 10L180.566 12.5977C179.681 12.2201 178.737 11.901 177.734 11.6406C176.732 11.3802 175.71 11.25 174.668 11.25C173.171 11.25 172.018 11.4974 171.211 11.9922C170.417 12.487 170.02 13.1641 170.02 14.0234C170.02 14.6875 170.202 15.2344 170.566 15.6641C170.944 16.0938 171.543 16.4974 172.363 16.875C173.184 17.2526 174.264 17.6953 175.605 18.2031C176.947 18.6979 178.105 19.2122 179.082 19.7461C180.059 20.2669 180.807 20.9049 181.328 21.6602C181.862 22.4023 182.129 23.3594 182.129 24.5312Z" fill="white"/>
<path d="M185.605 27.1484C185.605 25.7682 186.009 24.7982 186.816 24.2383C187.637 23.6784 188.62 23.3984 189.766 23.3984C190.846 23.3984 191.784 23.6784 192.578 24.2383C193.372 24.7982 193.77 25.7682 193.77 27.1484C193.77 28.4635 193.372 29.4141 192.578 30C191.784 30.5859 190.846 30.8789 189.766 30.8789C188.62 30.8789 187.637 30.5859 186.816 30C186.009 29.4141 185.605 28.4635 185.605 27.1484Z" fill="white"/>
<path d="M222.812 15.5078C222.812 18.8281 222.194 21.5885 220.957 23.7891C219.72 25.9896 217.975 27.6432 215.723 28.75C213.483 29.8438 210.846 30.3906 207.812 30.3906H198.574V1.83594H208.457C211.53 1.83594 214.134 2.36328 216.27 3.41797C218.405 4.47266 220.026 6.01562 221.133 8.04688C222.253 10.0781 222.812 12.5651 222.812 15.5078ZM214.805 15.7812C214.805 14.0495 214.57 12.6172 214.102 11.4844C213.646 10.3385 212.956 9.48568 212.031 8.92578C211.107 8.35286 209.941 8.06641 208.535 8.06641H206.289V24.0625H208.008C210.352 24.0625 212.07 23.3854 213.164 22.0312C214.258 20.6641 214.805 18.5807 214.805 15.7812Z" fill="white"/>
<path d="M237.461 7.87109C239.609 7.87109 241.465 8.2487 243.027 9.00391C244.59 9.74609 245.794 10.8659 246.641 12.3633C247.487 13.8607 247.91 15.7357 247.91 17.9883V21.3867H234.258C234.323 22.5456 234.753 23.4961 235.547 24.2383C236.354 24.9805 237.539 25.3516 239.102 25.3516C240.482 25.3516 241.745 25.2148 242.891 24.9414C244.049 24.668 245.241 24.2448 246.465 23.6719V29.1602C245.397 29.7201 244.232 30.1302 242.969 30.3906C241.706 30.651 240.111 30.7812 238.184 30.7812C235.957 30.7812 233.965 30.3841 232.207 29.5898C230.449 28.7956 229.062 27.5651 228.047 25.8984C227.044 24.2318 226.543 22.0898 226.543 19.4727C226.543 16.8164 226.999 14.6354 227.91 12.9297C228.822 11.2109 230.098 9.94141 231.738 9.12109C233.379 8.28776 235.286 7.87109 237.461 7.87109ZM237.734 13.0664C236.836 13.0664 236.081 13.3529 235.469 13.9258C234.87 14.4857 234.518 15.3711 234.414 16.582H240.977C240.964 15.931 240.833 15.3385 240.586 14.8047C240.339 14.2708 239.974 13.8477 239.492 13.5352C239.023 13.2227 238.438 13.0664 237.734 13.0664Z" fill="white"/>
<path d="M258.027 30.3906L249.59 8.26172H257.559L261.309 21.3477C261.348 21.4648 261.413 21.7643 261.504 22.2461C261.608 22.7279 261.66 23.1771 261.66 23.5938H261.797C261.797 23.151 261.842 22.7279 261.934 22.3242C262.025 21.9206 262.096 21.6081 262.148 21.3867L266.074 8.26172H274.023L265.586 30.3906H258.027Z" fill="white"/>
<path d="M298.672 1.83594L288.047 30.3906H284.844L295.488 1.83594H298.672Z" fill="white"/>
<path d="M301.133 22.7734L316.426 16.3086L301.133 9.0625V6.17188L319.922 15.4688V17.3242L301.133 25.6445V22.7734Z" fill="white"/>
</svg>
